# This file uses meters as units for non-parametric coordinates.

mtllib stand_low.mtl
g default
v -212.100891 85.745254 307.116434
v -212.315996 108.117981 284.757599
v -258.056574 85.669830 307.483030
v -258.271619 108.042541 285.124209
v -235.078744 85.707534 307.299714
v -235.293819 108.080261 284.940886
v -217.834361 87.468559 308.895954
v -218.049465 109.841278 286.537120
v -223.578829 87.459350 308.942000
v -223.793903 109.832077 286.583172
v -229.327626 86.772407 308.309938
v -229.542701 109.145126 285.951110
v -240.816460 86.753540 308.401583
v -241.031564 109.126266 286.042748
v -246.556599 87.421638 309.125330
v -246.771763 109.794372 286.766482
v -252.301113 87.411987 309.170896
v -252.516218 109.784698 286.812061
v -212.105764 84.973556 306.344310
v -217.850221 84.964149 306.390170
v -212.320869 107.346267 283.985475
v -218.065355 107.336883 284.031329
v -258.061417 84.898124 306.710913
v -258.276522 107.270843 284.352078
v -235.083617 84.935836 306.527590
v -240.828037 84.926406 306.573427
v -235.298692 107.308563 284.168762
v -241.043142 107.299133 284.214592
v -223.594694 84.954719 306.435965
v -223.809799 107.327453 284.077130
v -229.339204 84.945259 306.481782
v -229.554278 107.317993 284.122954
v -246.572524 84.917015 306.619281
v -246.787628 107.289733 284.260446
v -252.316974 84.907577 306.665112
v -252.532101 107.280304 284.306240
vt 0.913824 0.585084
vt 0.913824 0.760525
vt 0.879182 0.760525
vt 0.879182 0.585084
vt 0.782094 0.760525
vt 0.749172 0.760525
vt 0.749172 0.585084
vt 0.782094 0.585084
vt 0.847319 0.760525
vt 0.847319 0.585084
vt 0.815015 0.760525
vt 0.815015 0.585084
vt 0.716869 0.760525
vt 0.716869 0.585084
vt 0.685006 0.760525
vt 0.685006 0.585084
vt 0.650364 0.760525
vt 0.650364 0.585084
vt 0.461113 0.987955
vt 0.461113 1.000000
vt 0.431205 1.000000
vt 0.431205 0.987955
vt 0.266505 0.987955
vt 0.266505 1.000000
vt 0.236589 1.000000
vt 0.236589 0.987955
vt 0.679554 0.999615
vt 0.679554 0.987955
vt 0.849690 0.987955
vt 0.849690 0.999615
vt 0.942493 0.999615
vt 0.942493 0.987955
vt 0.973288 0.987955
vt 0.973288 0.999615
vt 0.555956 0.999615
vt 0.555956 0.987955
vt 0.586960 0.987955
vt 0.586960 0.999615
vt 0.491025 0.987955
vt 0.491025 1.000000
vt 0.206677 1.000000
vt 0.206677 0.987955
vt 0.520940 0.987955
vt 0.520940 1.000000
vt 0.176766 1.000000
vt 0.176766 0.987955
vt 0.550854 0.987955
vt 0.550854 1.000000
vt 0.146856 1.000000
vt 0.146856 0.987955
vt 0.911661 0.999615
vt 0.911661 0.987955
vt 0.617927 0.987955
vt 0.617927 0.999615
vt 0.880762 0.999615
vt 0.880762 0.987955
vt 0.648826 0.987955
vt 0.648826 0.999615
vn 0.396563 0.650833 0.647422
vn 0.396563 0.650833 0.647422
vn 0.213049 0.691682 0.690062
vn 0.213049 0.691682 0.690062
vn 0.004482 0.706902 0.707297
vn 0.213052 0.691682 0.690062
vn 0.213052 0.691682 0.690062
vn 0.004482 0.706902 0.707297
vn 0.213049 0.691682 0.690062
vn -0.078633 0.704320 0.705514
vn -0.078633 0.704320 0.705514
vn 0.213049 0.691682 0.690062
vn -0.078633 0.704320 0.705514
vn -0.204283 0.690997 0.693391
vn -0.204283 0.690997 0.693391
vn -0.078633 0.704320 0.705514
vn -0.204283 0.690997 0.693391
vn 0.004482 0.706902 0.707297
vn 0.004482 0.706902 0.707297
vn -0.204283 0.690997 0.693391
vn 0.213052 0.691682 0.690062
vn 0.087566 0.704593 0.704188
vn 0.087567 0.704593 0.704188
vn 0.213052 0.691682 0.690062
vn 0.087566 0.704593 0.704188
vn -0.204284 0.690998 0.693390
vn -0.204284 0.690998 0.693390
vn 0.087567 0.704593 0.704188
vn -0.204284 0.690998 0.693390
vn -0.388318 0.649545 0.653682
vn -0.388318 0.649545 0.653682
vn -0.204284 0.690998 0.693390
vn 0.006804 -0.707307 0.706874
vn 0.006804 -0.707307 0.706874
vn 0.006804 -0.707307 0.706874
vn 0.006804 -0.707307 0.706874
vn -0.006800 0.707311 -0.706870
vn -0.006800 0.707310 -0.706871
vn -0.006800 0.707311 -0.706870
vn -0.006800 0.707310 -0.706871
vn 0.999967 0.001654 -0.007966
vn 0.999967 0.001654 -0.007966
vn 0.999967 0.001654 -0.007966
vn 0.999967 0.001654 -0.007966
vn -0.999967 -0.001654 0.007964
vn -0.999967 -0.001654 0.007964
vn -0.999967 -0.001654 0.007964
vn -0.999967 -0.001654 0.007964
vn 0.006802 -0.707313 0.706868
vn 0.006802 -0.707313 0.706868
vn 0.006802 -0.707313 0.706868
vn 0.006802 -0.707313 0.706868
vn -0.006799 0.707307 -0.706873
vn -0.006799 0.707307 -0.706873
vn -0.006799 0.707307 -0.706873
vn -0.006799 0.707307 -0.706873
vn 0.006798 -0.707305 0.706876
vn 0.006798 -0.707305 0.706876
vn 0.006798 -0.707305 0.706876
vn 0.006798 -0.707305 0.706876
vn -0.006800 0.707312 -0.706869
vn -0.006800 0.707312 -0.706869
vn -0.006800 0.707312 -0.706869
vn -0.006800 0.707312 -0.706869
vn 0.006801 -0.707308 0.706873
vn 0.006801 -0.707308 0.706873
vn 0.006801 -0.707308 0.706873
vn 0.006801 -0.707308 0.706873
vn -0.006802 0.707313 -0.706868
vn -0.006802 0.707313 -0.706868
vn -0.006802 0.707313 -0.706868
vn -0.006802 0.707313 -0.706868
vn 0.006798 -0.707304 0.706877
vn 0.006798 -0.707304 0.706877
vn 0.006798 -0.707304 0.706877
vn 0.006798 -0.707304 0.706877
vn -0.006800 0.707311 -0.706870
vn -0.006800 0.707311 -0.706870
vn -0.006800 0.707311 -0.706870
vn -0.006799 0.707311 -0.706870
vn 0.006799 -0.707313 0.706867
vn 0.006799 -0.707313 0.706867
vn 0.006799 -0.707313 0.706867
vn 0.006799 -0.707313 0.706867
vn -0.006798 0.707307 -0.706874
vn -0.006798 0.707307 -0.706874
vn -0.006798 0.707307 -0.706874
vn -0.006798 0.707307 -0.706874
vn 0.006799 -0.707310 0.706871
vn 0.006799 -0.707310 0.706871
vn 0.006799 -0.707310 0.706871
vn 0.006799 -0.707310 0.706871
vn -0.006799 0.707309 -0.706872
vn -0.006799 0.707309 -0.706872
vn -0.006799 0.707309 -0.706872
vn -0.006799 0.707309 -0.706872
vn 0.006796 -0.707304 0.706877
vn 0.006796 -0.707304 0.706877
vn 0.006796 -0.707304 0.706877
vn 0.006796 -0.707304 0.706877
vn -0.006803 0.707309 -0.706871
vn -0.006803 0.707309 -0.706871
vn -0.006803 0.707309 -0.706871
vn -0.006803 0.707309 -0.706871
s off
g polySurface3 stand_low1
usemtl blinn7SG
f 1/1/1 2/2/2 8/3/3 7/4/4
f 6/5/5 14/6/6 13/7/7 5/8/8
f 8/3/9 10/9/10 9/10/11 7/4/12
f 10/9/13 12/11/14 11/12/15 9/10/16
f 12/11/17 6/5/18 5/8/19 11/12/20
f 14/6/21 16/13/22 15/14/23 13/7/24
f 16/13/25 18/15/26 17/16/27 15/14/28
f 18/15/29 4/17/30 3/18/31 17/16/32
f 7/19/33 20/20/34 19/21/35 1/22/36
f 2/23/37 21/24/38 22/25/39 8/26/40
f 1/22/41 19/21/42 21/24/43 2/23/44
f 4/27/45 24/28/46 23/29/47 3/30/48
f 13/31/49 26/32/50 25/33/51 5/34/52
f 6/35/53 27/36/54 28/37/55 14/38/56
f 9/39/57 29/40/58 20/20/59 7/19/60
f 8/26/61 22/25/62 30/41/63 10/42/64
f 11/43/65 31/44/66 29/40/67 9/39/68
f 10/42/69 30/41/70 32/45/71 12/46/72
f 5/47/73 25/48/74 31/44/75 11/43/76
f 12/46/77 32/45/78 27/49/79 6/50/80
f 15/51/81 33/52/82 26/32/83 13/31/84
f 14/38/85 28/37/86 34/53/87 16/54/88
f 17/55/89 35/56/90 33/52/91 15/51/92
f 16/54/93 34/53/94 36/57/95 18/58/96
f 3/30/97 23/29/98 35/56/99 17/55/100
f 18/58/101 36/57/102 24/28/103 4/27/104
g default
v -259.406841 108.263046 284.281787
v -259.181396 84.816413 307.713860
v -259.194816 82.703155 305.599383
v -259.420261 106.149780 282.167310
v -235.183017 107.774536 283.559959
v -235.657807 108.147277 283.937507
v -236.808780 108.300109 284.101518
v -234.957608 84.327873 306.992055
v -236.583365 84.853492 307.533585
v -235.432391 84.700660 307.369573
v -235.443874 82.896843 305.564794
v -236.596732 82.740219 305.419151
v -234.964301 83.271141 305.934742
v -235.189733 106.717804 282.502609
v -236.822177 106.186843 281.987078
v -235.669283 106.343460 282.132698
vt 0.353265 0.965107
vt 0.352259 0.781203
vt 0.477539 0.781289
vt 0.478693 0.965229
vt 0.980222 0.760525
vt 0.980222 0.944388
vt 0.854877 0.944388
vt 0.854877 0.760525
vt 0.487996 0.781228
vt 0.496290 0.781179
vt 0.497443 0.965119
vt 0.489149 0.965167
vt 0.336679 0.965204
vt 0.335672 0.781301
vt 0.484045 0.781251
vt 0.485198 0.965191
vt 0.848373 0.944388
vt 0.848373 0.760525
vt 0.844424 0.944388
vt 0.844424 0.760525
vt 0.485090 0.765948
vt 0.487363 0.769977
vt 0.486827 0.778211
vt 0.484042 0.780806
vt 0.352192 0.764445
vt 0.478911 0.764999
vt 0.486461 0.978621
vt 0.483786 0.981266
vt 0.477290 0.981644
vt 0.353337 0.981705
vt 0.484833 0.966160
vt 0.487169 0.970363
vn 0.004483 0.706902 0.707298
vn 0.004483 0.706902 0.707298
vn 0.013697 0.706887 0.707194
vn 0.013697 0.706887 0.707194
vn -0.004482 -0.706902 -0.707297
vn -0.004482 -0.706902 -0.707297
vn 0.004734 -0.706857 -0.707341
vn 0.004734 -0.706857 -0.707341
vn 0.974297 0.163857 0.154586
vn 0.972233 -0.160679 -0.170131
vn 0.972234 -0.160678 -0.170130
vn 0.974296 0.163858 0.154587
vn -0.999967 -0.001637 0.007983
vn -0.999967 -0.001637 0.007983
vn -0.999967 -0.001637 0.007983
vn -0.999967 -0.001637 0.007983
vn 0.013697 0.706887 0.707194
vn 0.013697 0.706887 0.707194
vn 0.191055 0.694782 0.693381
vn 0.191055 0.694782 0.693381
vn 0.745155 0.474991 0.468111
vn 0.745155 0.474991 0.468111
vn 0.974297 0.163857 0.154586
vn 0.974296 0.163858 0.154587
vn 0.004734 -0.706857 -0.707341
vn 0.004734 -0.706857 -0.707341
vn 0.182267 -0.694171 -0.696351
vn 0.182267 -0.694171 -0.696351
vn 0.739121 -0.472569 -0.479979
vn 0.739121 -0.472569 -0.479979
vn 0.972234 -0.160678 -0.170130
vn 0.972233 -0.160679 -0.170131
vn 0.006798 -0.707309 0.706872
vn 0.006798 -0.707309 0.706872
vn 0.006798 -0.707309 0.706872
vn 0.006798 -0.707309 0.706872
vn 0.006798 -0.707309 0.706872
vn 0.006798 -0.707309 0.706872
vn 0.006798 -0.707309 0.706872
vn 0.006798 -0.707309 0.706872
vn -0.006799 0.707310 -0.706871
vn -0.006799 0.707310 -0.706871
vn -0.006799 0.707310 -0.706871
vn -0.006799 0.707310 -0.706871
vn -0.006799 0.707310 -0.706871
vn -0.006799 0.707310 -0.706871
vn -0.006799 0.707310 -0.706871
vn -0.006799 0.707310 -0.706871
s off
g stand_low1 polySurface4
usemtl blinn2SG
f 37/59/105 38/60/106 45/61/107 43/62/108
f 39/63/109 40/64/110 51/65/111 48/66/112
f 44/67/113 49/68/114 50/69/115 41/70/116
f 40/71/117 39/72/118 38/60/119 37/59/120
f 43/62/121 45/61/122 46/73/123 42/74/124
f 42/74/125 46/73/126 44/67/127 41/70/128
f 48/66/129 51/65/130 52/75/131 47/76/132
f 47/76/133 52/75/134 50/77/135 49/78/136
f 47/79/137 49/80/138 44/81/139 46/82/140 45/61/141 38/60/142 39/83/143 48/84/144
f 50/85/145 52/86/146 51/87/147 40/88/148 37/59/149 43/62/150 42/89/151 41/90/152
g default
v -262.279541 75.457603 308.321503
v -262.123962 75.457603 272.530457
v -262.279541 80.894272 308.321503
v -264.086884 110.283752 276.042084
v -207.036316 80.894272 308.563751
v -208.843689 110.283752 276.284271
v -207.036316 75.457603 308.563751
v -206.880737 75.457603 272.772675
v -219.394257 75.457603 300.480316
v -219.308502 75.457603 280.747498
v -249.766022 75.457603 280.613922
v -249.851837 75.457603 300.346771
v -219.394257 -18.782043 300.480316
v -219.308502 -18.782043 280.747498
v -249.766022 -18.782043 280.613922
v -249.851837 -18.782043 300.346771
v -260.029785 -22.504326 306.971527
v -259.885956 -22.504326 273.900085
v -260.029785 -17.534126 306.971527
v -259.885956 -17.533913 273.900085
v -209.274353 -17.534126 307.194153
v -209.130554 -17.533913 274.122681
v -209.274353 -22.504326 307.194153
v -209.130554 -22.504326 274.122681
vt 0.327023 0.958119
vt 0.296898 0.956793
vt 0.141611 0.770745
vt 0.335752 0.759793
vt 0.340917 0.522704
vt 0.647780 0.522704
vt 0.647780 0.764445
vt 0.340917 0.764445
vt 0.687755 0.957807
vt 0.657066 0.954462
vt 0.650364 0.760524
vt 0.843863 0.768468
vt 0.629384 0.044801
vt 0.798320 0.044801
vt 0.798320 0.154251
vt 0.629384 0.154251
vt 0.561201 0.401650
vt 0.561201 0.207197
vt 0.867134 0.207197
vt 0.867134 0.401650
vt 0.804674 0.957800
vt 0.804674 0.987955
vt 0.498263 0.987955
vt 0.498263 0.957800
vt 0.869219 0.202335
vt 0.802579 0.150718
vt 0.802579 0.044801
vt 0.869219 0.000000
vt 0.624082 0.044801
vt 0.561201 0.000000
vt 0.561201 0.006335
vt 0.627737 0.058239
vt 0.627737 0.162216
vt 0.561201 0.207197
vt 0.808176 0.162216
vt 0.871090 0.207197
vt 0.278386 0.522704
vt 0.278386 0.000000
vt 0.387836 0.000000
vt 0.387836 0.522704
vt 0.556772 0.000000
vt 0.556772 0.522704
vt 0.000000 0.522704
vt 0.000000 0.000000
vt 0.109450 0.000000
vt 0.109450 0.522704
vt 0.000000 0.550271
vt 0.027568 0.550271
vt 0.027568 0.733705
vt 0.000000 0.733705
vt 0.309088 0.550271
vt 0.309088 0.733705
vt 0.336656 0.550271
vt 0.336656 0.733705
vt 0.650364 0.401650
vt 0.931884 0.401650
vt 0.931884 0.585084
vt 0.650364 0.585084
vt 0.027568 0.761274
vt 0.309088 0.761274
vt 0.309088 0.522704
vt 0.027568 0.522704
vn -0.998796 -0.048964 0.003095
vn -0.998796 -0.048964 0.003096
vn -0.998796 -0.048964 0.003096
vn -0.998796 -0.048964 0.003095
vn -0.002953 0.739346 0.673319
vn -0.002953 0.739346 0.673319
vn -0.002953 0.739346 0.673319
vn -0.002953 0.739346 0.673319
vn 0.998796 0.048965 -0.003097
vn 0.998796 0.048965 -0.003097
vn 0.998796 0.048965 -0.003097
vn 0.998796 0.048965 -0.003097
vn 0.000000 -1.000000 0.000000
vn 0.000000 -1.000000 0.000000
vn 0.000000 -1.000000 0.000000
vn 0.000000 -1.000000 0.000000
vn 0.004363 0.100566 -0.994921
vn 0.004363 0.100566 -0.994921
vn 0.004363 0.100566 -0.994921
vn 0.004363 0.100566 -0.994921
vn -0.004384 0.000000 0.999990
vn -0.004384 0.000000 0.999990
vn -0.004384 0.000000 0.999990
vn -0.004384 0.000000 0.999990
vn 0.000000 -1.000000 0.000000
vn 0.000000 -1.000000 0.000000
vn 0.000000 -1.000000 0.000000
vn 0.000000 -1.000000 0.000000
vn 0.000000 -1.000000 0.000000
vn 0.000000 -1.000000 0.000000
vn 0.000000 -1.000000 0.000000
vn 0.000000 -1.000000 0.000000
vn 0.000000 -1.000000 0.000000
vn 0.000000 -1.000000 0.000000
vn 0.000000 -1.000000 0.000000
vn 0.000000 -1.000000 0.000000
vn 0.000000 -1.000000 0.000000
vn 0.000000 -1.000000 0.000000
vn 0.000000 -1.000000 0.000000
vn 0.000000 -1.000000 0.000000
vn 0.999991 0.000000 0.004347
vn 0.999991 0.000000 0.004347
vn 0.999991 0.000000 0.004347
vn 0.999991 0.000000 0.004347
vn 0.004386 0.000000 -0.999990
vn 0.004386 0.000000 -0.999990
vn 0.004386 0.000000 -0.999990
vn 0.004386 0.000000 -0.999990
vn -0.999991 0.000000 -0.004347
vn -0.999991 0.000000 -0.004347
vn -0.999991 0.000000 -0.004347
vn -0.999991 0.000000 -0.004347
vn -0.004386 0.000000 0.999990
vn -0.004386 0.000000 0.999990
vn -0.004386 0.000000 0.999990
vn -0.004386 0.000000 0.999990
vn -0.999991 0.000000 -0.004348
vn -0.999991 0.000000 -0.004348
vn -0.999991 0.000000 -0.004348
vn -0.999991 0.000000 -0.004348
vn -0.000000 1.000000 0.000006
vn -0.000000 1.000000 0.000006
vn -0.000000 1.000000 0.000006
vn -0.000000 1.000000 0.000006
vn 0.999991 0.000000 0.004348
vn 0.999991 0.000000 0.004348
vn 0.999991 0.000000 0.004348
vn 0.999991 0.000000 0.004348
vn 0.000000 -1.000000 0.000000
vn 0.000000 -1.000000 0.000000
vn 0.000000 -1.000000 0.000000
vn 0.000000 -1.000000 0.000000
vn 0.004386 0.000000 -0.999990
vn 0.004386 0.000000 -0.999990
vn 0.004386 0.000000 -0.999990
vn 0.004386 0.000000 -0.999990
vn -0.004386 0.000000 0.999990
vn -0.004386 0.000000 0.999990
vn -0.004386 0.000000 0.999990
vn -0.004386 0.000000 0.999990
s off
g stand_low1 polySurface2
usemtl blinn3SG
f 53/91/153 55/92/154 56/93/155 54/94/156
f 55/95/157 57/96/158 58/97/159 56/98/160
f 57/99/161 59/100/162 60/101/163 58/102/164
f 65/103/165 68/104/166 67/105/167 66/106/168
f 54/107/169 56/108/170 58/109/171 60/110/172
f 59/111/173 57/112/174 55/113/175 53/114/176
f 59/115/177 61/116/178 62/117/179 60/118/180
f 60/118/181 62/117/182 63/119/183 54/120/184
f 54/121/185 63/122/186 64/123/187 53/124/188
f 53/124/189 64/123/190 61/125/191 59/126/192
f 61/127/193 65/128/194 66/129/195 62/130/196
f 62/130/197 66/129/198 67/131/199 63/132/200
f 63/133/201 67/134/202 68/135/203 64/136/204
f 64/136/205 68/135/206 65/128/207 61/127/208
f 69/137/209 71/138/210 72/139/211 70/140/212
f 71/138/213 73/141/214 74/142/215 72/139/216
f 73/141/217 75/143/218 76/144/219 74/142/220
f 75/145/221 69/146/222 70/147/223 76/148/224
f 70/149/225 72/139/226 74/142/227 76/150/228
f 75/151/229 73/141/230 71/138/231 69/152/232
g default
v -211.476720 106.228454 281.784880
v -211.251274 82.781837 305.216953
v -211.237907 84.895111 307.331387
v -211.463323 108.341735 283.899321
v -235.700455 106.716980 282.506728
v -235.225658 106.344192 282.129151
v -234.074692 106.191345 281.965169
v -235.475039 83.270324 305.938795
v -233.849276 82.744735 305.397235
v -235.000213 82.897575 305.561224
v -234.988810 84.701385 307.366078
v -233.835880 84.858001 307.511676
v -235.468347 84.327041 306.996108
v -235.693785 107.773681 283.564005
v -234.061265 108.304626 284.079616
v -235.214248 108.148010 283.933975
vt 0.498263 0.948307
vt 0.498263 0.764445
vt 0.623608 0.764445
vt 0.623608 0.948307
vt 0.144102 0.795929
vt 0.144102 0.979995
vt 0.018765 0.979995
vt 0.018765 0.795929
vt 0.000000 0.795929
vt 0.008301 0.795929
vt 0.008301 0.979995
vt 0.000000 0.979995
vt 0.160714 0.795929
vt 0.160714 0.979995
vt 0.630111 0.764445
vt 0.630111 0.948307
vt 0.634060 0.764445
vt 0.634060 0.948307
vt 0.012254 0.979995
vt 0.012254 0.795929
vt 0.008452 0.795929
vt 0.008452 0.791284
vt 0.008452 0.782872
vt 0.011659 0.779521
vt 0.018135 0.779521
vt 0.144102 0.779521
vt 0.012533 0.983422
vt 0.015795 0.979995
vt 0.144102 0.996390
vt 0.019514 0.996390
vt 0.012533 0.996390
vt 0.012533 0.991383
vn -0.004482 -0.706902 -0.707297
vn -0.004482 -0.706902 -0.707297
vn -0.013697 -0.706887 -0.707194
vn -0.013697 -0.706887 -0.707194
vn 0.004483 0.706901 0.707298
vn 0.004483 0.706901 0.707298
vn -0.004733 0.706856 0.707341
vn -0.004733 0.706856 0.707341
vn -0.974290 -0.163879 -0.154603
vn -0.972238 0.160663 0.170119
vn -0.972239 0.160662 0.170118
vn -0.974291 -0.163878 -0.154603
vn 0.999967 0.001645 -0.007973
vn 0.999967 0.001645 -0.007973
vn 0.999967 0.001645 -0.007973
vn 0.999967 0.001645 -0.007973
vn -0.013697 -0.706887 -0.707194
vn -0.013697 -0.706887 -0.707194
vn -0.191066 -0.694782 -0.693377
vn -0.191066 -0.694782 -0.693377
vn -0.745152 -0.474992 -0.468114
vn -0.745152 -0.474992 -0.468114
vn -0.974290 -0.163879 -0.154603
vn -0.974291 -0.163878 -0.154603
vn -0.004733 0.706856 0.707341
vn -0.004733 0.706856 0.707341
vn -0.182252 0.694173 0.696353
vn -0.182252 0.694173 0.696353
vn -0.739154 0.472546 0.479950
vn -0.739154 0.472546 0.479950
vn -0.972239 0.160662 0.170118
vn -0.972238 0.160663 0.170119
vn 0.006802 -0.707311 0.706870
vn 0.006802 -0.707311 0.706870
vn 0.006803 -0.707311 0.706870
vn 0.006803 -0.707311 0.706870
vn 0.006803 -0.707311 0.706870
vn 0.006803 -0.707311 0.706870
vn 0.006802 -0.707311 0.706870
vn 0.006803 -0.707311 0.706870
vn -0.006800 0.707310 -0.706871
vn -0.006800 0.707310 -0.706871
vn -0.006800 0.707310 -0.706871
vn -0.006800 0.707310 -0.706871
vn -0.006800 0.707310 -0.706871
vn -0.006800 0.707310 -0.706871
vn -0.006800 0.707310 -0.706871
vn -0.006800 0.707310 -0.706871
s off
g stand_low1 polySurface5
usemtl blinn2SG
f 77/153/233 78/154/234 85/155/235 83/156/236
f 79/157/237 80/158/238 91/159/239 88/160/240
f 84/161/241 89/162/242 90/163/243 81/164/244
f 80/158/245 79/157/246 78/165/247 77/166/248
f 83/156/249 85/155/250 86/167/251 82/168/252
f 82/168/253 86/167/254 84/169/255 81/170/256
f 88/160/257 91/159/258 92/171/259 87/172/260
f 87/172/261 92/171/262 90/163/263 89/162/264
f 87/173/265 89/174/266 84/175/267 86/176/268 85/177/269 78/178/270 79/157/271 88/160/272
f 90/179/273 92/180/274 91/159/275 80/158/276 77/181/277 83/182/278 82/183/279 81/184/280
