# Blender 3.6.2
# www.blender.org
mtllib GLASSwindow.mtl
o arch_low.002
v 0.450104 3.227049 -0.122372
v 0.385842 3.200431 -0.122372
v 0.359224 3.136169 -0.122372
v 0.385842 3.071907 -0.122372
v 0.402133 3.067483 -0.122372
v 0.522585 3.060302 -0.122372
v 0.524341 3.134915 -0.122372
v 0.524341 3.175490 -0.122372
v 0.598578 3.224541 -0.122372
v 0.497333 3.209626 -0.122372
v 0.643037 3.063153 -0.122372
v 0.662840 3.069399 -0.122372
v 0.689458 3.133661 -0.122372
v 0.662840 3.197923 -0.122372
v 0.377315 3.051456 -0.122372
v 0.350696 2.987194 -0.122372
v 0.374508 2.922961 -0.122372
v 0.444821 2.896252 -0.122372
v 0.520830 2.950269 -0.122372
v 0.520830 2.985689 -0.122372
v 0.545108 2.912045 -0.122372
v 0.496551 2.912967 -0.122372
v 0.606035 2.893365 -0.122372
v 0.667151 2.919892 -0.122372
v 0.690963 2.984184 -0.122372
v 0.664345 3.048446 -0.122372
v 0.671981 2.654407 -0.082463
v 0.569305 2.541173 -0.082367
v 0.812198 2.473093 -0.082367
v 0.709378 2.375822 -0.082367
v 0.806535 2.049050 -0.082367
v 0.709733 2.222126 -0.082367
v 0.806535 1.861824 -0.082367
v 0.709733 1.721370 -0.082367
v 0.806535 1.419769 -0.082367
v 0.709733 1.572457 -0.082367
v 0.806535 1.084088 -0.082367
v 0.709733 0.909399 -0.082367
v 0.806535 0.622763 -0.082367
v 0.709733 0.781015 -0.082367
v 0.806535 0.386110 -0.082367
v 0.709733 0.195586 -0.082367
v 0.806535 0.101098 -0.082367
v 0.709733 0.104219 -0.082367
v 0.355729 2.654407 -0.081195
v 0.434123 2.538605 -0.079986
v 0.200662 2.473093 -0.083172
v 0.303476 2.375822 -0.082045
v 0.206325 2.049050 -0.083110
v 0.303121 2.222126 -0.082049
v 0.206325 1.926530 -0.083110
v 0.303121 1.721370 -0.082049
v 0.206325 1.389813 -0.083110
v 0.303121 1.548920 -0.082049
v 0.206325 1.084088 -0.083110
v 0.303121 0.909399 -0.082049
v 0.206325 0.622763 -0.083110
v 0.303121 0.781015 -0.082049
v 0.206325 0.386110 -0.083110
v 0.303121 0.195586 -0.082049
v 0.206325 0.101098 -0.083110
v 0.303121 0.104219 -0.082049
v 0.511596 2.886803 -0.082367
v 0.507824 2.577976 -0.082367
v 0.569305 2.541173 -0.101603
v 0.709378 2.375822 -0.101603
v 0.709733 2.222126 -0.101603
v 0.709733 1.721370 -0.101603
v 0.709733 1.572457 -0.101603
v 0.709733 0.909399 -0.101603
v 0.709733 0.781015 -0.101603
v 0.709733 0.195586 -0.101603
v 0.709733 0.104219 -0.101603
v 0.303476 2.375822 -0.101282
v 0.434123 2.538605 -0.099223
v 0.303121 2.222126 -0.101285
v 0.303121 1.721370 -0.101285
v 0.303121 1.548920 -0.101285
v 0.303121 0.909399 -0.101285
v 0.303121 0.781015 -0.101285
v 0.303121 0.195586 -0.101285
v 0.303121 0.104219 -0.101285
v 0.507824 2.577976 -0.101603
v 0.671981 2.654407 -0.142470
v 0.812198 2.473093 -0.142374
v 0.806535 2.049050 -0.142374
v 0.806535 1.861824 -0.142374
v 0.806535 1.419769 -0.142374
v 0.806535 1.084088 -0.142374
v 0.806535 0.622763 -0.142374
v 0.806535 0.386110 -0.142374
v 0.806535 0.101098 -0.142374
v 0.355729 2.654407 -0.141202
v 0.200662 2.473093 -0.143179
v 0.206325 2.049050 -0.143117
v 0.206325 1.926530 -0.143117
v 0.206325 1.389813 -0.143117
v 0.206325 1.084088 -0.143117
v 0.206325 0.622763 -0.143117
v 0.206325 0.386110 -0.143117
v 0.206325 0.101098 -0.143117
v 0.511596 2.886803 -0.142374
v 0.659817 2.638435 -0.112947
v 0.368058 2.638435 -0.112947
v 0.739734 0.103792 -0.112947
v 0.288142 0.103792 -0.112947
v 0.739734 0.651059 -0.112947
v 0.772648 2.205594 -0.112947
v 0.255228 2.205594 -0.112947
v 0.288142 0.651059 -0.112947
v 0.756191 1.428326 -0.112947
v 0.271685 1.428326 -0.112947
v -0.450105 3.227049 -0.122372
v -0.385843 3.200431 -0.122372
v -0.359225 3.136169 -0.122372
v -0.385843 3.071907 -0.122372
v -0.402134 3.067483 -0.122372
v -0.522586 3.060302 -0.122372
v -0.524342 3.134915 -0.122372
v -0.524342 3.175490 -0.122372
v -0.598579 3.224541 -0.122372
v -0.497334 3.209626 -0.122372
v -0.551350 3.208714 -0.122372
v -0.643038 3.063153 -0.122372
v -0.662841 3.069399 -0.122372
v -0.689459 3.133661 -0.122372
v -0.662841 3.197923 -0.122372
v -0.377316 3.051456 -0.122372
v -0.350697 2.987194 -0.122372
v -0.374509 2.922961 -0.122372
v -0.444822 2.896252 -0.122372
v -0.520831 2.950269 -0.122372
v -0.520831 2.985689 -0.122372
v -0.545109 2.912045 -0.122372
v -0.496552 2.912967 -0.122372
v -0.606036 2.893365 -0.122372
v -0.667152 2.919892 -0.122372
v -0.690964 2.984184 -0.122372
v -0.664346 3.048446 -0.122372
v -0.671982 2.654407 -0.082463
v -0.569306 2.541173 -0.082367
v -0.812199 2.473093 -0.082367
v -0.709379 2.375822 -0.082367
v -0.806536 2.049050 -0.082367
v -0.709734 2.222126 -0.082367
v -0.806536 1.861824 -0.082367
v -0.709734 1.721370 -0.082367
v -0.806536 1.419769 -0.082367
v -0.709734 1.572457 -0.082367
v -0.806536 1.084088 -0.082367
v -0.709734 0.909399 -0.082367
v -0.806536 0.622763 -0.082367
v -0.709734 0.781015 -0.082367
v -0.806536 0.386110 -0.082367
v -0.709734 0.195586 -0.082367
v -0.806536 0.101098 -0.082367
v -0.709734 0.104219 -0.082367
v -0.355730 2.654407 -0.081195
v -0.434124 2.538605 -0.079986
v -0.200663 2.473093 -0.083172
v -0.303477 2.375822 -0.082045
v -0.206326 2.049050 -0.083110
v -0.303122 2.222126 -0.082049
v -0.206326 1.926530 -0.083110
v -0.303122 1.721370 -0.082049
v -0.206326 1.389813 -0.083110
v -0.303122 1.548920 -0.082049
v -0.206326 1.084088 -0.083110
v -0.303122 0.909399 -0.082049
v -0.206326 0.622763 -0.083110
v -0.303122 0.781015 -0.082049
v -0.206326 0.386110 -0.083110
v -0.303122 0.195586 -0.082049
v -0.206326 0.101098 -0.083110
v -0.303122 0.104219 -0.082049
v -0.511597 2.886803 -0.082367
v -0.507825 2.577976 -0.082367
v -0.569306 2.541173 -0.101603
v -0.709379 2.375822 -0.101603
v -0.709734 2.222126 -0.101603
v -0.709734 1.721370 -0.101603
v -0.709734 1.572457 -0.101603
v -0.709734 0.909399 -0.101603
v -0.709734 0.781015 -0.101603
v -0.709734 0.195586 -0.101603
v -0.709734 0.104219 -0.101603
v -0.303477 2.375822 -0.101282
v -0.434124 2.538605 -0.099223
v -0.303122 2.222126 -0.101285
v -0.303122 1.721370 -0.101285
v -0.303122 1.548920 -0.101285
v -0.303122 0.909399 -0.101285
v -0.303122 0.781015 -0.101285
v -0.303122 0.195586 -0.101285
v -0.303122 0.104219 -0.101285
v -0.507825 2.577976 -0.101603
v -0.671982 2.654407 -0.142470
v -0.812199 2.473093 -0.142374
v -0.806536 2.049050 -0.142374
v -0.806536 1.861824 -0.142374
v -0.806536 1.419769 -0.142374
v -0.806536 1.084088 -0.142374
v -0.806536 0.622763 -0.142374
v -0.806536 0.386110 -0.142374
v -0.806536 0.101098 -0.142374
v -0.355730 2.654407 -0.141202
v -0.200663 2.473093 -0.143179
v -0.206326 2.049050 -0.143117
v -0.206326 1.926530 -0.143117
v -0.206326 1.389813 -0.143117
v -0.206326 1.084088 -0.143117
v -0.206326 0.622763 -0.143117
v -0.206326 0.386110 -0.143117
v -0.206326 0.101098 -0.143117
v -0.511597 2.886803 -0.142374
v -0.659818 2.638435 -0.112947
v -0.368059 2.638435 -0.112947
v -0.739735 0.103792 -0.112947
v -0.288143 0.103792 -0.112947
v -0.739735 0.651059 -0.112947
v -0.772649 2.205594 -0.112947
v -0.255229 2.205594 -0.112947
v -0.288143 0.651059 -0.112947
v -0.756192 1.428326 -0.112947
v -0.271686 1.428326 -0.112947
v 0.552164 3.208987 -0.122372
v -0.376404 3.049256 -0.122372
v -0.386894 3.071621 -0.122372
v -0.662933 3.069622 -0.122372
vn -0.0000 -0.0000 1.0000
vn 0.0001 0.0004 1.0000
vn -0.0135 -0.0005 0.9999
vn -0.0110 -0.0000 0.9999
vn 0.0005 0.0001 1.0000
vn 0.0100 0.0046 0.9999
vn 1.0000 -0.0000 -0.0000
vn -1.0000 -0.0000 -0.0000
vn 0.7799 -0.6259 -0.0000
vn -0.5136 -0.8580 -0.0000
vn 1.0000 -0.0023 -0.0000
vn -0.7630 -0.6464 -0.0000
vn 0.4712 -0.8820 -0.0000
vn -0.0000 1.0000 -0.0000
vn -1.0000 -0.0023 -0.0000
vn 0.7600 -0.6500 -0.0000
vn 0.7600 -0.6499 -0.0000
vn 0.7599 -0.6500 -0.0000
vn 0.8230 0.5680 -0.0000
vn 0.8305 -0.5571 -0.0005
vn 0.8302 -0.5575 -0.0000
vn 0.7910 0.6118 -0.0000
vn 0.9999 0.0134 -0.0000
vn 0.9999 0.0133 -0.0000
vn 0.9999 -0.0134 -0.0000
vn -0.0001 0.0004 1.0000
vn 0.0135 -0.0005 0.9999
vn 0.0110 -0.0000 0.9999
vn -0.0005 0.0001 1.0000
vn -0.0100 0.0046 0.9999
vn -0.7799 -0.6259 -0.0000
vn 0.5136 -0.8580 -0.0000
vn 0.7630 -0.6464 -0.0000
vn -0.4712 -0.8820 -0.0000
vn 0.7600 0.6500 -0.0000
vn -0.8230 0.5680 -0.0000
vn 0.8305 0.5570 -0.0000
vn -0.7910 0.6118 -0.0000
vn -0.9999 -0.0134 -0.0000
vt 0.293791 0.736472
vt 0.285000 0.733004
vt 0.295296 0.751597
vt 0.297555 0.745141
vt 0.273533 0.735656
vt 0.260116 0.755385
vt 0.264928 0.755303
vt 0.275767 0.738991
vt 0.275068 0.755371
vt 0.275732 0.771728
vt 0.442928 0.898177
vt 0.429512 0.882878
vt 0.446336 0.862040
vt 0.457871 0.874387
vt 0.448713 0.842563
vt 0.464061 0.820153
vt 0.452344 0.773862
vt 0.465226 0.794045
vt 0.452891 0.752816
vt 0.466823 0.731212
vt 0.452605 0.658403
vt 0.466826 0.682922
vt 0.451864 0.640289
vt 0.464256 0.617249
vt 0.445569 0.558053
vt 0.461828 0.582919
vt 0.440954 0.544935
vt 0.456488 0.540536
vt 0.400419 0.898609
vt 0.382888 0.874942
vt 0.394453 0.862940
vt 0.410569 0.882714
vt 0.377095 0.820204
vt 0.392285 0.842923
vt 0.375871 0.802765
vt 0.388725 0.773329
vt 0.374604 0.726098
vt 0.388545 0.748844
vt 0.374808 0.682040
vt 0.389052 0.657604
vt 0.377450 0.617068
vt 0.389753 0.639603
vt 0.379427 0.584207
vt 0.394360 0.560516
vt 0.384248 0.545597
vt 0.397765 0.549194
vt 0.421112 0.916273
vt 0.420249 0.887426
vt 0.399612 0.551083
vt 0.396794 0.560932
vt 0.449666 0.773766
vt 0.450160 0.752782
vt 0.396810 0.861976
vt 0.411877 0.881034
vt 0.392392 0.639724
vt 0.391777 0.657664
vt 0.449174 0.640441
vt 0.442599 0.558792
vt 0.420131 0.884593
vt 0.427973 0.880901
vt 0.394978 0.842694
vt 0.391285 0.748841
vt 0.391429 0.773258
vt 0.449869 0.658463
vt 0.446333 0.842362
vt 0.439236 0.547698
vt 0.444090 0.861137
vt 0.393911 0.904932
vt 0.375504 0.877738
vt 0.448410 0.903007
vt 0.421815 0.924089
vt 0.365969 0.726133
vt 0.366244 0.681851
vt 0.465391 0.877178
vt 0.475425 0.682768
vt 0.475425 0.731317
vt 0.369019 0.616622
vt 0.472936 0.616765
vt 0.368305 0.821008
vt 0.371177 0.583443
vt 0.472231 0.820790
vt 0.367245 0.803136
vt 0.470656 0.582058
vt 0.376064 0.544569
vt 0.473706 0.794394
vt 0.465460 0.539442
vt 0.894852 0.458684
vt 0.956210 0.458684
vt 0.956210 0.384327
vt 0.894852 0.384327
vt 0.905710 0.728709
vt 0.945351 0.728709
vt 0.960682 0.669898
vt 0.890380 0.669898
vt 0.892616 0.564291
vt 0.958446 0.564291
vt 0.041179 0.792122
vt 0.044951 0.783457
vt 0.042699 0.776999
vt 0.032384 0.795582
vt 0.038127 0.773247
vt 0.024082 0.754162
vt 0.024052 0.754174
vt 0.023155 0.756849
vt 0.032615 0.773148
vt 0.020920 0.792918
vt 0.023158 0.789585
vt 0.012335 0.773262
vt 0.007523 0.773176
vt 0.020619 0.793036
vt 0.022475 0.773205
vt 0.923442 0.358744
vt 0.908543 0.335375
vt 0.919891 0.323091
vt 0.936650 0.343619
vt 0.902076 0.281809
vt 0.917423 0.303802
vt 0.900739 0.255195
vt 0.913591 0.234909
vt 0.899005 0.192135
vt 0.912999 0.213820
vt 0.898991 0.143763
vt 0.913230 0.119214
vt 0.901592 0.078032
vt 0.913990 0.101133
vt 0.904054 0.043612
vt 0.920382 0.018677
vt 0.909439 0.001103
vt 0.925015 0.005522
vt 0.965463 0.359153
vt 0.955408 0.343419
vt 0.971374 0.323791
vt 0.982855 0.335711
vt 0.973532 0.303880
vt 0.988714 0.281229
vt 0.977157 0.234381
vt 0.989959 0.263821
vt 0.977372 0.209884
vt 0.991357 0.187137
vt 0.976966 0.118511
vt 0.991210 0.143020
vt 0.976287 0.100434
vt 0.988644 0.077861
vt 0.971743 0.021152
vt 0.986695 0.044913
vt 0.968332 0.009797
vt 0.981890 0.006198
vt 0.945826 0.348094
vt 0.944982 0.376610
vt 0.969302 0.021568
vt 0.966480 0.011691
vt 0.915735 0.213782
vt 0.916276 0.234807
vt 0.954110 0.341756
vt 0.969033 0.322835
vt 0.974234 0.118572
vt 0.973638 0.100548
vt 0.923360 0.019420
vt 0.916682 0.101289
vt 0.938164 0.341658
vt 0.945936 0.345292
vt 0.970848 0.303652
vt 0.974455 0.234307
vt 0.974630 0.209878
vt 0.915966 0.119275
vt 0.919793 0.303591
vt 0.926737 0.008293
vt 0.922111 0.322185
vt 0.990185 0.338496
vt 0.971900 0.365417
vt 0.944288 0.384327
vt 0.918056 0.363514
vt 0.999783 0.142837
vt 1.000000 0.187184
vt 0.901299 0.338233
vt 0.890380 0.192244
vt 0.890380 0.143607
vt 0.997104 0.077426
vt 0.892897 0.077541
vt 0.997474 0.282046
vt 0.994968 0.044153
vt 0.893433 0.282577
vt 0.998577 0.264208
vt 0.895201 0.042743
vt 0.990098 0.005172
vt 0.892130 0.255536
vt 0.900440 -0.000000
vt 0.731242 0.538992
vt 0.731242 0.464635
vt 0.669885 0.464635
vt 0.669885 0.538992
vt 0.720384 0.809017
vt 0.735714 0.750207
vt 0.665412 0.750207
vt 0.680743 0.809017
vt 0.733478 0.644600
vt 0.667648 0.644600
vt 0.285209 0.755438
vt 0.276626 0.774403
vt 0.290721 0.755345
vt 0.276331 0.736767
vt 0.273783 0.774656
vt 0.285417 0.777872
vt 0.295335 0.759048
vt 0.294086 0.774108
vt 0.297555 0.765317
vt 0.264742 0.732187
vt 0.254993 0.752172
vt 0.254979 0.758771
vt 0.265114 0.778420
vt 0.256071 0.735570
vt 0.252604 0.745183
vt 0.252581 0.767090
vt 0.256325 0.775332
vt 0.021209 0.753918
vt 0.002397 0.776383
vt 0.012125 0.796378
vt 0.012544 0.750146
vt 0.002389 0.769785
vt 0.003752 0.753224
vt -0.000000 0.761462
vt -0.000000 0.783370
vt 0.003457 0.792987
vt 0.023683 0.791666
vt 0.042706 0.769658
vt 0.032847 0.750714
vt 0.023719 0.791809
vt 0.044971 0.763281
vt 0.041512 0.754486
s 0
usemtl window
f 2/1/1 3/2/1 10/3/1 1/4/1
f 15/5/1 19/6/1 20/7/1 5/8/1
f 6/9/1 20/7/1 11/10/1
f 27/11/2 28/12/2 30/13/2 29/14/2
f 29/14/1 30/13/1 32/15/1 31/16/1
f 31/16/1 32/15/1 34/17/1 33/18/1
f 33/18/1 34/17/1 36/19/1 35/20/1
f 35/20/1 36/19/1 38/21/1 37/22/1
f 37/22/1 38/21/1 40/23/1 39/24/1
f 39/24/1 40/23/1 42/25/1 41/26/1
f 41/26/1 42/25/1 44/27/1 43/28/1
f 45/29/3 47/30/3 48/31/3 46/32/3
f 47/30/4 49/33/4 50/34/4 48/31/4
f 49/33/4 51/35/4 52/36/4 50/34/4
f 51/35/4 53/37/4 54/38/4 52/36/4
f 53/37/4 55/39/4 56/40/4 54/38/4
f 55/39/4 57/41/4 58/42/4 56/40/4
f 57/41/4 59/43/4 60/44/4 58/42/4
f 59/43/4 61/45/4 62/46/4 60/44/4
f 28/12/5 27/11/5 63/47/5 64/48/5
f 63/47/6 45/29/6 46/32/6 64/48/6
f 60/44/7 62/46/7 82/49/7 81/50/7
f 36/19/8 34/17/8 68/51/8 69/52/8
f 46/32/9 48/31/9 74/53/9 75/54/9
f 56/40/7 58/42/7 80/55/7 79/56/7
f 42/25/8 40/23/8 71/57/8 72/58/8
f 28/12/10 64/48/10 83/59/10 65/60/10
f 48/31/11 50/34/11 76/61/11 74/53/11
f 52/36/7 54/38/7 78/62/7 77/63/7
f 38/21/8 36/19/8 69/52/8 70/64/8
f 58/42/7 60/44/7 81/50/7 80/55/7
f 34/17/8 32/15/8 67/65/8 68/51/8
f 44/27/8 42/25/8 72/58/8 73/66/8
f 30/13/12 28/12/12 65/60/12 66/67/12
f 64/48/13 46/32/13 75/54/13 83/59/13
f 54/38/7 56/40/7 79/56/7 78/62/7
f 62/46/14 44/27/14 73/66/14 82/49/14
f 40/23/8 38/21/8 70/64/8 71/57/8
f 32/15/15 30/13/15 66/67/15 67/65/15
f 50/34/7 52/36/7 77/63/7 76/61/7
f 45/29/16 93/68/17 94/69/16 47/30/18
f 63/47/19 27/11/19 84/70/19 102/71/19
f 53/37/8 97/72/8 98/73/8 55/39/8
f 63/47/20 102/71/21 93/68/20 45/29/21
f 27/11/22 29/14/22 85/74/22 84/70/22
f 35/20/7 37/22/7 89/75/7 88/76/7
f 55/39/8 98/73/8 99/77/8 57/41/8
f 37/22/7 39/24/7 90/78/7 89/75/7
f 47/30/23 94/69/24 95/79/23 49/33/24
f 57/41/8 99/77/8 100/80/8 59/43/8
f 29/14/25 31/16/25 86/81/25 85/74/25
f 49/33/7 95/79/7 96/82/7 51/35/7
f 39/24/7 41/26/7 91/83/7 90/78/7
f 59/43/8 100/80/8 101/84/8 61/45/8
f 31/16/7 33/18/7 87/85/7 86/81/7
f 51/35/7 96/82/7 97/72/7 53/37/7
f 41/26/7 43/28/7 92/86/7 91/83/7
f 33/18/7 35/20/7 88/76/7 87/85/7
f 107/87/1 110/88/1 106/89/1 105/90/1
f 103/91/1 104/92/1 109/93/1 108/94/1
f 111/95/1 112/96/1 110/88/1 107/87/1
f 108/94/1 109/93/1 112/96/1 111/95/1
f 114/97/1 113/98/1 122/99/1 115/100/1
f 120/101/1 229/102/1 125/103/1 124/104/1 119/105/1
f 128/106/1 117/107/1 133/108/1 132/109/1 227/110/1
f 118/111/1 124/104/1 133/108/1
f 140/112/26 142/113/26 143/114/26 141/115/26
f 142/113/1 144/116/1 145/117/1 143/114/1
f 144/116/1 146/118/1 147/119/1 145/117/1
f 146/118/1 148/120/1 149/121/1 147/119/1
f 148/120/1 150/122/1 151/123/1 149/121/1
f 150/122/1 152/124/1 153/125/1 151/123/1
f 152/124/1 154/126/1 155/127/1 153/125/1
f 154/126/1 156/128/1 157/129/1 155/127/1
f 158/130/27 159/131/27 161/132/27 160/133/27
f 160/133/28 161/132/28 163/134/28 162/135/28
f 162/135/28 163/134/28 165/136/28 164/137/28
f 164/137/28 165/136/28 167/138/28 166/139/28
f 166/139/28 167/138/28 169/140/28 168/141/28
f 168/141/28 169/140/28 171/142/28 170/143/28
f 170/143/28 171/142/28 173/144/28 172/145/28
f 172/145/28 173/144/28 175/146/28 174/147/28
f 141/115/29 177/148/29 176/149/29 140/112/29
f 176/149/30 177/148/30 159/131/30 158/130/30
f 173/144/8 194/150/8 195/151/8 175/146/8
f 149/121/7 182/152/7 181/153/7 147/119/7
f 159/131/31 188/154/31 187/155/31 161/132/31
f 169/140/8 192/156/8 193/157/8 171/142/8
f 155/127/7 185/158/7 184/159/7 153/125/7
f 141/115/32 178/160/32 196/161/32 177/148/32
f 161/132/15 187/155/15 189/162/15 163/134/15
f 165/136/8 190/163/8 191/164/8 167/138/8
f 151/123/7 183/165/7 182/152/7 149/121/7
f 171/142/8 193/157/8 194/150/8 173/144/8
f 147/119/7 181/153/7 180/166/7 145/117/7
f 157/129/7 186/167/7 185/158/7 155/127/7
f 143/114/33 179/168/33 178/160/33 141/115/33
f 177/148/34 196/161/34 188/154/34 159/131/34
f 167/138/8 191/164/8 192/156/8 169/140/8
f 175/146/14 195/151/14 186/167/14 157/129/14
f 153/125/7 184/159/7 183/165/7 151/123/7
f 145/117/11 180/166/11 179/168/11 143/114/11
f 163/134/8 189/162/8 190/163/8 165/136/8
f 158/130/35 160/133/35 207/169/35 206/170/35
f 176/149/36 215/171/36 197/172/36 140/112/36
f 166/139/7 168/141/7 211/173/7 210/174/7
f 176/149/37 158/130/37 206/170/37 215/171/37
f 140/112/38 197/172/38 198/175/38 142/113/38
f 148/120/8 201/176/8 202/177/8 150/122/8
f 168/141/7 170/143/7 212/178/7 211/173/7
f 150/122/8 202/177/8 203/179/8 152/124/8
f 160/133/25 162/135/25 208/180/25 207/169/25
f 170/143/7 172/145/7 213/181/7 212/178/7
f 142/113/39 198/175/39 199/182/39 144/116/39
f 162/135/7 164/137/7 209/183/7 208/180/7
f 152/124/8 203/179/8 204/184/8 154/126/8
f 172/145/7 174/147/7 214/185/7 213/181/7
f 144/116/8 199/182/8 200/186/8 146/118/8
f 164/137/7 166/139/7 210/174/7 209/183/7
f 154/126/8 204/184/8 205/187/8 156/128/8
f 146/118/8 200/186/8 201/176/8 148/120/8
f 220/188/1 218/189/1 219/190/1 223/191/1
f 216/192/1 221/193/1 222/194/1 217/195/1
f 224/196/1 220/188/1 223/191/1 225/197/1
f 221/193/1 224/196/1 225/197/1 222/194/1
f 7/198/1 11/10/1 12/199/1 8/200/1
f 5/8/1 6/9/1 7/198/1
f 4/201/1 5/8/1 7/198/1 8/200/1
f 3/2/1 4/201/1 8/200/1 10/3/1
f 11/10/1 7/198/1 6/9/1
f 20/7/1 6/9/1 5/8/1
f 20/7/1 19/6/1 26/202/1 11/10/1
f 12/199/1 13/203/1 226/204/1 8/200/1
f 13/203/1 14/205/1 9/206/1 226/204/1
f 19/6/1 15/5/1 16/207/1 22/208/1
f 19/6/1 21/209/1 25/210/1 26/202/1
f 16/207/1 17/211/1 18/212/1 22/208/1
f 21/209/1 23/213/1 24/214/1 25/210/1
f 119/105/1 118/111/1 117/107/1
f 124/104/1 118/111/1 119/105/1
f 124/104/1 139/215/1 132/109/1 133/108/1
f 117/107/1 118/111/1 133/108/1
f 132/109/1 135/216/1 129/217/1 227/110/1
f 139/215/1 138/218/1 134/219/1 132/109/1
f 138/218/1 137/220/1 136/221/1 134/219/1
f 135/216/1 131/222/1 130/223/1 129/217/1
f 120/101/1 119/105/1 117/107/1 228/224/1
f 229/102/1 120/101/1 123/225/1 126/226/1
f 122/99/1 120/101/1 228/224/1 116/227/1 115/100/1
f 123/225/1 121/228/1 127/229/1 126/226/1
